# Blender v3.2.2 OBJ File: 'fence.blend'
# www.blender.org
mtllib fence.mtl
o Cube
v -0.174433 1.000000 0.982568
v -0.200000 1.000000 -1.000000
v -0.200000 1.000000 0.909301
v -0.143060 1.000000 0.995351
v -0.140735 1.000000 -1.000000
v -0.140735 1.000000 0.909301
v 0.029632 1.000000 1.000000
v 0.029632 1.000000 0.909301
v 0.029632 1.000000 -1.000000
v -0.194189 1.000000 0.951164
v -0.140735 1.000000 0.954651
v 0.029632 1.000000 0.954651
v -0.119824 1.000000 -1.000000
v -0.119824 1.000000 1.000000
v -0.119824 1.000000 0.909301
v -0.119824 1.000000 0.954651
v -0.174433 0.000000 0.982568
v -0.200000 0.000000 -1.000000
v -0.200000 0.000000 0.909301
v -0.140735 0.000000 -1.000000
v -0.143060 0.000000 0.995351
v 0.029632 0.000000 -1.000000
v 0.029632 0.000000 1.000000
v -0.194189 0.000000 0.951164
v -0.119824 0.000000 1.000000
v -0.119824 0.000000 -1.000000
v 0.174433 1.000000 0.982568
v 0.200000 1.000000 -1.000000
v 0.200000 1.000000 0.909301
v 0.143060 1.000000 0.995351
v 0.140735 1.000000 -1.000000
v 0.140735 1.000000 0.909301
v -0.029632 1.000000 1.000000
v -0.029632 1.000000 0.909301
v -0.029632 1.000000 -1.000000
v 0.194189 1.000000 0.951164
v 0.140735 1.000000 0.954651
v -0.029632 1.000000 0.954651
v 0.119824 1.000000 -1.000000
v 0.119824 1.000000 1.000000
v 0.119824 1.000000 0.909301
v 0.119824 1.000000 0.954651
v 0.174433 0.000000 0.982568
v 0.200000 0.000000 -1.000000
v 0.200000 0.000000 0.909301
v 0.140735 0.000000 -1.000000
v 0.143060 0.000000 0.995351
v -0.029632 0.000000 -1.000000
v -0.029632 0.000000 1.000000
v 0.194189 0.000000 0.951164
v 0.119824 0.000000 1.000000
v 0.119824 0.000000 -1.000000
v -0.174433 -1.000000 0.982568
v -0.200000 -1.000000 -1.000000
v -0.200000 -1.000000 0.909301
v -0.143060 -1.000000 0.995351
v -0.140735 -1.000000 -1.000000
v -0.140735 -1.000000 0.909301
v 0.029632 -1.000000 1.000000
v 0.029632 -1.000000 0.909301
v 0.029632 -1.000000 -1.000000
v -0.194189 -1.000000 0.951164
v -0.140735 -1.000000 0.954651
v 0.029632 -1.000000 0.954651
v -0.119824 -1.000000 -1.000000
v -0.119824 -1.000000 1.000000
v -0.119824 -1.000000 0.909301
v -0.119824 -1.000000 0.954651
v 0.174433 -1.000000 0.982568
v 0.200000 -1.000000 -1.000000
v 0.200000 -1.000000 0.909301
v 0.143060 -1.000000 0.995351
v 0.140735 -1.000000 -1.000000
v 0.140735 -1.000000 0.909301
v -0.029632 -1.000000 1.000000
v -0.029632 -1.000000 0.909301
v -0.029632 -1.000000 -1.000000
v 0.194189 -1.000000 0.951164
v 0.140735 -1.000000 0.954651
v -0.029632 -1.000000 0.954651
v 0.119824 -1.000000 -1.000000
v 0.119824 -1.000000 1.000000
v 0.119824 -1.000000 0.909301
v 0.119824 -1.000000 0.954651
vt 0.337960 0.625000
vt 0.375000 0.625000
vt 0.375000 0.750000
vt 0.337960 0.750000
vt 0.619331 0.625000
vt 0.625000 0.625000
vt 0.625000 0.750000
vt 0.619331 0.750000
vt 0.613663 0.625000
vt 0.613663 0.750000
vt 0.613663 0.787040
vt 0.375000 0.787040
vt 0.324890 0.625000
vt 0.324890 0.750000
vt 0.625000 0.787040
vt 0.619331 0.787040
vt 0.662040 0.625000
vt 0.662040 0.750000
vt 0.375000 0.800110
vt 0.613663 0.800110
vt 0.613663 0.893520
vt 0.375000 0.893520
vt 0.619331 0.800110
vt 0.625000 0.800110
vt 0.625000 0.893520
vt 0.619331 0.893520
vt 0.675110 0.625000
vt 0.768520 0.625000
vt 0.768520 0.750000
vt 0.675110 0.750000
vt 0.231480 0.625000
vt 0.231480 0.750000
vt 0.337960 0.625000
vt 0.337960 0.750000
vt 0.375000 0.750000
vt 0.375000 0.625000
vt 0.619331 0.625000
vt 0.619331 0.750000
vt 0.625000 0.750000
vt 0.625000 0.625000
vt 0.613663 0.750000
vt 0.613663 0.625000
vt 0.375000 0.787040
vt 0.613663 0.787040
vt 0.324890 0.625000
vt 0.324890 0.750000
vt 0.619331 0.787040
vt 0.625000 0.787040
vt 0.662040 0.750000
vt 0.662040 0.625000
vt 0.375000 0.800110
vt 0.375000 0.893520
vt 0.613663 0.893520
vt 0.613663 0.800110
vt 0.619331 0.800110
vt 0.619331 0.893520
vt 0.625000 0.893520
vt 0.625000 0.800110
vt 0.675110 0.625000
vt 0.675110 0.750000
vt 0.768520 0.750000
vt 0.768520 0.625000
vt 0.231480 0.625000
vt 0.231480 0.750000
vt 0.337960 0.750000
vt 0.375000 0.750000
vt 0.619331 0.750000
vt 0.625000 0.750000
vt 0.613663 0.750000
vt 0.375000 0.787040
vt 0.613663 0.787040
vt 0.324890 0.750000
vt 0.619331 0.787040
vt 0.625000 0.787040
vt 0.662040 0.750000
vt 0.375000 0.800110
vt 0.375000 0.893520
vt 0.613663 0.893520
vt 0.613663 0.800110
vt 0.619331 0.800110
vt 0.619331 0.893520
vt 0.625000 0.893520
vt 0.625000 0.800110
vt 0.675110 0.750000
vt 0.768520 0.750000
vt 0.231480 0.750000
vt 0.375000 0.750000
vt 0.337960 0.750000
vt 0.625000 0.750000
vt 0.619331 0.750000
vt 0.613663 0.750000
vt 0.613663 0.787040
vt 0.375000 0.787040
vt 0.324890 0.750000
vt 0.625000 0.787040
vt 0.619331 0.787040
vt 0.662040 0.750000
vt 0.375000 0.800110
vt 0.613663 0.800110
vt 0.613663 0.893520
vt 0.375000 0.893520
vt 0.619331 0.800110
vt 0.625000 0.800110
vt 0.625000 0.893520
vt 0.619331 0.893520
vt 0.768520 0.750000
vt 0.675110 0.750000
vt 0.231480 0.750000
vn 0.0000 0.0000 -1.0000
vn -0.8464 0.0000 0.5325
vn -1.0000 0.0000 0.0000
vn 0.0000 1.0000 0.0000
vn -0.3773 0.0000 0.9261
vn 0.0000 0.0000 1.0000
vn -0.9905 0.0000 0.1375
vn -0.1962 0.0000 0.9806
vn 0.8464 0.0000 0.5325
vn 1.0000 0.0000 0.0000
vn 0.3773 0.0000 0.9261
vn 0.9905 0.0000 0.1375
vn 0.1962 0.0000 0.9806
vn 0.0000 -1.0000 0.0000
usemtl Material
s off
f 20/1/1 18/2/1 2/3/1 5/4/1
f 24/5/2 17/6/2 1/7/2 10/8/2
f 18/2/3 19/9/3 3/10/3 2/3/3
f 2/3/4 3/10/4 6/11/4 5/12/4
f 26/13/1 20/1/1 5/4/1 13/14/1
f 10/8/4 1/7/4 4/15/4 11/16/4
f 17/6/5 21/17/5 4/18/5 1/7/5
f 13/19/4 15/20/4 8/21/4 9/22/4
f 16/23/4 14/24/4 7/25/4 12/26/4
f 25/27/6 23/28/6 7/29/6 14/30/6
f 15/20/4 16/23/4 12/26/4 8/21/4
f 3/10/4 10/8/4 11/16/4 6/11/4
f 19/9/7 24/5/7 10/8/7 3/10/7
f 6/11/4 11/16/4 16/23/4 15/20/4
f 21/17/8 25/27/8 14/30/8 4/18/8
f 11/16/4 4/15/4 14/24/4 16/23/4
f 5/12/4 6/11/4 15/20/4 13/19/4
f 22/31/1 26/13/1 13/14/1 9/32/1
f 46/33/1 31/34/1 28/35/1 44/36/1
f 50/37/9 36/38/9 27/39/9 43/40/9
f 44/36/10 28/35/10 29/41/10 45/42/10
f 28/35/4 31/43/4 32/44/4 29/41/4
f 52/45/1 39/46/1 31/34/1 46/33/1
f 36/38/4 37/47/4 30/48/4 27/39/4
f 43/40/11 27/39/11 30/49/11 47/50/11
f 39/51/4 35/52/4 34/53/4 41/54/4
f 42/55/4 38/56/4 33/57/4 40/58/4
f 51/59/6 40/60/6 33/61/6 49/62/6
f 41/54/4 34/53/4 38/56/4 42/55/4
f 29/41/4 32/44/4 37/47/4 36/38/4
f 45/42/12 29/41/12 36/38/12 50/37/12
f 32/44/4 41/54/4 42/55/4 37/47/4
f 47/50/13 30/49/13 40/60/13 51/59/13
f 37/47/4 42/55/4 40/58/4 30/48/4
f 31/43/4 39/51/4 41/54/4 32/44/4
f 48/63/1 35/64/1 39/46/1 52/45/1
f 20/1/1 57/65/1 54/66/1 18/2/1
f 24/5/2 62/67/2 53/68/2 17/6/2
f 18/2/3 54/66/3 55/69/3 19/9/3
f 54/66/14 57/70/14 58/71/14 55/69/14
f 26/13/1 65/72/1 57/65/1 20/1/1
f 62/67/14 63/73/14 56/74/14 53/68/14
f 17/6/5 53/68/5 56/75/5 21/17/5
f 65/76/14 61/77/14 60/78/14 67/79/14
f 68/80/14 64/81/14 59/82/14 66/83/14
f 25/27/6 66/84/6 59/85/6 23/28/6
f 67/79/14 60/78/14 64/81/14 68/80/14
f 55/69/14 58/71/14 63/73/14 62/67/14
f 19/9/7 55/69/7 62/67/7 24/5/7
f 58/71/14 67/79/14 68/80/14 63/73/14
f 21/17/8 56/75/8 66/84/8 25/27/8
f 63/73/14 68/80/14 66/83/14 56/74/14
f 57/70/14 65/76/14 67/79/14 58/71/14
f 22/31/1 61/86/1 65/72/1 26/13/1
f 46/33/1 44/36/1 70/87/1 73/88/1
f 50/37/9 43/40/9 69/89/9 78/90/9
f 44/36/10 45/42/10 71/91/10 70/87/10
f 70/87/14 71/91/14 74/92/14 73/93/14
f 52/45/1 46/33/1 73/88/1 81/94/1
f 78/90/14 69/89/14 72/95/14 79/96/14
f 43/40/11 47/50/11 72/97/11 69/89/11
f 81/98/14 83/99/14 76/100/14 77/101/14
f 84/102/14 82/103/14 75/104/14 80/105/14
f 51/59/6 49/62/6 75/106/6 82/107/6
f 83/99/14 84/102/14 80/105/14 76/100/14
f 71/91/14 78/90/14 79/96/14 74/92/14
f 45/42/12 50/37/12 78/90/12 71/91/12
f 74/92/14 79/96/14 84/102/14 83/99/14
f 47/50/13 51/59/13 82/107/13 72/97/13
f 79/96/14 72/95/14 82/103/14 84/102/14
f 73/93/14 74/92/14 83/99/14 81/98/14
f 48/63/1 52/45/1 81/94/1 77/108/1
