# Blender v3.2.2 OBJ File: 'pot.blend'
# www.blender.org
mtllib pot.mtl
o Cube
v 0.000000 0.000000 0.073283
v 0.000000 0.000000 -0.150000
v 0.000000 -0.602977 -0.150000
v 0.000000 -0.646974 0.073283
v 4.368766 0.000000 -0.150000
v 4.368766 0.000000 0.150000
v 4.318994 -0.751623 0.150000
v 4.318994 -0.751623 -0.150000
v 0.000000 -0.800000 -0.150000
v 4.368766 -0.602977 -0.150000
v 0.000000 -0.800000 0.150000
v 4.368766 -0.602977 0.150000
v 4.178137 -0.800000 -0.150000
v 4.178137 0.000000 -0.150000
v 4.219200 -0.644041 0.073283
v 4.178137 -0.602977 -0.150000
v 4.219200 0.000000 0.073283
v 4.178137 -0.800000 0.150000
v 4.353931 -0.699931 0.150000
v 0.000000 -0.701489 0.150000
v 0.000000 -0.701489 -0.150000
v 4.353931 -0.699931 -0.150000
v 4.178137 -0.701489 -0.150000
v 4.178137 -0.701489 0.150000
v 4.270173 -0.778773 -0.150000
v 4.273451 0.000000 -0.150000
v 4.273451 -0.602977 0.150000
v 4.273451 -0.602977 -0.150000
v 4.273451 0.000000 0.150000
v 4.270173 -0.778773 0.150000
v 4.273451 -0.701489 -0.150000
v 4.273451 -0.701489 0.150000
v 0.000000 -0.652233 0.150000
v 4.362680 -0.649897 -0.150000
v 4.178137 -0.652233 0.150000
v 4.362680 -0.649897 0.150000
v 0.000000 -0.652233 -0.150000
v 4.178137 -0.652233 -0.150000
v 4.273451 -0.652233 0.150000
v 4.273451 -0.652233 -0.150000
v 4.223765 -0.791723 0.150000
v 4.223765 -0.791723 -0.150000
v 4.225794 0.000000 -0.150000
v 4.225794 -0.602977 0.150000
v 4.225794 -0.602977 -0.150000
v 4.225794 0.000000 0.150000
v 4.225794 -0.701489 -0.150000
v 4.225794 -0.701489 0.150000
v 4.225794 -0.652233 -0.150000
v 4.225794 -0.652233 0.150000
v 0.000000 0.602977 -0.150000
v 0.000000 0.646974 0.073283
v 4.318994 0.751623 0.150000
v 4.318994 0.751623 -0.150000
v 0.000000 0.800000 -0.150000
v 4.368766 0.602977 -0.150000
v 0.000000 0.800000 0.150000
v 4.368766 0.602977 0.150000
v 4.178137 0.800000 -0.150000
v 4.219200 0.644041 0.073283
v 4.178137 0.602977 -0.150000
v 4.178137 0.800000 0.150000
v 4.353931 0.699931 0.150000
v 0.000000 0.701489 0.150000
v 0.000000 0.701489 -0.150000
v 4.353931 0.699931 -0.150000
v 4.178137 0.701489 -0.150000
v 4.178137 0.701489 0.150000
v 4.270173 0.778773 -0.150000
v 4.273451 0.602977 0.150000
v 4.273451 0.602977 -0.150000
v 4.270173 0.778773 0.150000
v 4.273451 0.701489 -0.150000
v 4.273451 0.701489 0.150000
v 0.000000 0.652233 0.150000
v 4.362680 0.649897 -0.150000
v 4.178137 0.652233 0.150000
v 4.362680 0.649897 0.150000
v 0.000000 0.652233 -0.150000
v 4.178137 0.652233 -0.150000
v 4.273451 0.652233 0.150000
v 4.273451 0.652233 -0.150000
v 4.223765 0.791723 0.150000
v 4.223765 0.791723 -0.150000
v 4.225794 0.602977 0.150000
v 4.225794 0.602977 -0.150000
v 4.225794 0.701489 -0.150000
v 4.225794 0.701489 0.150000
v 4.225794 0.652233 -0.150000
v 4.225794 0.652233 0.150000
v -4.368766 0.000000 -0.150000
v -4.368766 0.000000 0.150000
v -4.318994 -0.751623 0.150000
v -4.318994 -0.751623 -0.150000
v -4.368766 -0.602977 -0.150000
v -4.368766 -0.602977 0.150000
v -4.178137 -0.800000 -0.150000
v -4.178137 0.000000 -0.150000
v -4.219200 -0.644041 0.073283
v -4.178137 -0.602977 -0.150000
v -4.219200 0.000000 0.073283
v -4.178137 -0.800000 0.150000
v -4.353931 -0.699931 0.150000
v -4.353931 -0.699931 -0.150000
v -4.178137 -0.701489 -0.150000
v -4.178137 -0.701489 0.150000
v -4.270173 -0.778773 -0.150000
v -4.273451 0.000000 -0.150000
v -4.273451 -0.602977 0.150000
v -4.273451 -0.602977 -0.150000
v -4.273451 0.000000 0.150000
v -4.270173 -0.778773 0.150000
v -4.273451 -0.701489 -0.150000
v -4.273451 -0.701489 0.150000
v -4.362680 -0.649897 -0.150000
v -4.178137 -0.652233 0.150000
v -4.362680 -0.649897 0.150000
v -4.178137 -0.652233 -0.150000
v -4.273451 -0.652233 0.150000
v -4.273451 -0.652233 -0.150000
v -4.223765 -0.791723 0.150000
v -4.223765 -0.791723 -0.150000
v -4.225794 0.000000 -0.150000
v -4.225794 -0.602977 0.150000
v -4.225794 -0.602977 -0.150000
v -4.225794 0.000000 0.150000
v -4.225794 -0.701489 -0.150000
v -4.225794 -0.701489 0.150000
v -4.225794 -0.652233 -0.150000
v -4.225794 -0.652233 0.150000
v -4.318994 0.751623 0.150000
v -4.318994 0.751623 -0.150000
v -4.368766 0.602977 -0.150000
v -4.368766 0.602977 0.150000
v -4.178137 0.800000 -0.150000
v -4.219200 0.644041 0.073283
v -4.178137 0.602977 -0.150000
v -4.178137 0.800000 0.150000
v -4.353931 0.699931 0.150000
v -4.353931 0.699931 -0.150000
v -4.178137 0.701489 -0.150000
v -4.178137 0.701489 0.150000
v -4.270173 0.778773 -0.150000
v -4.273451 0.602977 0.150000
v -4.273451 0.602977 -0.150000
v -4.270173 0.778773 0.150000
v -4.273451 0.701489 -0.150000
v -4.273451 0.701489 0.150000
v -4.362680 0.649897 -0.150000
v -4.178137 0.652233 0.150000
v -4.362680 0.649897 0.150000
v -4.178137 0.652233 -0.150000
v -4.273451 0.652233 0.150000
v -4.273451 0.652233 -0.150000
v -4.223765 0.791723 0.150000
v -4.223765 0.791723 -0.150000
v -4.225794 0.602977 0.150000
v -4.225794 0.602977 -0.150000
v -4.225794 0.701489 -0.150000
v -4.225794 0.701489 0.150000
v -4.225794 0.652233 -0.150000
v -4.225794 0.652233 0.150000
vt 0.859608 0.746029
vt 0.875000 0.746029
vt 0.875000 0.750000
vt 0.859608 0.750000
vt 0.375000 0.984608
vt 0.625000 0.984608
vt 0.625000 1.000000
vt 0.375000 1.000000
vt 0.155785 0.746029
vt 0.250000 0.746029
vt 0.250000 0.750000
vt 0.155785 0.750000
vt 0.148089 0.746029
vt 0.148089 0.750000
vt 0.750000 0.746029
vt 0.844215 0.746029
vt 0.844215 0.750000
vt 0.750000 0.750000
vt 0.375000 0.007943
vt 0.625000 0.007943
vt 0.625000 0.125000
vt 0.375000 0.125000
vt 0.375000 0.875000
vt 0.625000 0.875000
vt 0.625000 0.969215
vt 0.375000 0.969215
vt 0.375000 0.005957
vt 0.625000 0.005957
vt 0.148089 0.625000
vt 0.155785 0.625000
vt 0.155785 0.742057
vt 0.148089 0.742057
vt 0.250000 0.625000
vt 0.250000 0.742057
vt 0.859608 0.625000
vt 0.875000 0.625000
vt 0.875000 0.742057
vt 0.859608 0.742057
vt 0.851911 0.625000
vt 0.851911 0.742057
vt 0.125000 0.625000
vt 0.140392 0.625000
vt 0.140392 0.742057
vt 0.125000 0.742057
vt 0.125000 0.746029
vt 0.140392 0.746029
vt 0.140392 0.750000
vt 0.125000 0.750000
vt 0.375000 0.976911
vt 0.625000 0.976911
vt 0.851911 0.746029
vt 0.851911 0.750000
vt 0.851911 0.744043
vt 0.859608 0.744043
vt 0.125000 0.744043
vt 0.140392 0.744043
vt 0.375000 0.000000
vt 0.625000 0.000000
vt 0.625000 0.003971
vt 0.375000 0.003971
vt 0.750000 0.744043
vt 0.844215 0.744043
vt 0.148089 0.744043
vt 0.155785 0.744043
vt 0.250000 0.744043
vt 0.875000 0.744043
vt 0.844215 0.625000
vt 0.844215 0.742057
vt 0.750000 0.742057
vt 0.859608 0.746029
vt 0.859608 0.750000
vt 0.875000 0.750000
vt 0.875000 0.746029
vt 0.375000 0.984608
vt 0.375000 1.000000
vt 0.625000 1.000000
vt 0.625000 0.984608
vt 0.155785 0.746029
vt 0.155785 0.750000
vt 0.148089 0.746029
vt 0.148089 0.750000
vt 0.844215 0.750000
vt 0.844215 0.746029
vt 0.375000 0.007943
vt 0.375000 0.125000
vt 0.625000 0.125000
vt 0.625000 0.007943
vt 0.375000 0.969215
vt 0.625000 0.969215
vt 0.375000 0.005957
vt 0.625000 0.005957
vt 0.148089 0.625000
vt 0.148089 0.742057
vt 0.155785 0.742057
vt 0.155785 0.625000
vt 0.859608 0.625000
vt 0.859608 0.742057
vt 0.875000 0.742057
vt 0.875000 0.625000
vt 0.851911 0.625000
vt 0.851911 0.742057
vt 0.125000 0.625000
vt 0.125000 0.742057
vt 0.140392 0.742057
vt 0.140392 0.625000
vt 0.125000 0.746029
vt 0.125000 0.750000
vt 0.140392 0.750000
vt 0.140392 0.746029
vt 0.375000 0.976911
vt 0.625000 0.976911
vt 0.851911 0.746029
vt 0.851911 0.750000
vt 0.851911 0.744043
vt 0.859608 0.744043
vt 0.125000 0.744043
vt 0.140392 0.744043
vt 0.375000 0.000000
vt 0.375000 0.003971
vt 0.625000 0.003971
vt 0.625000 0.000000
vt 0.844215 0.744043
vt 0.148089 0.744043
vt 0.155785 0.744043
vt 0.875000 0.744043
vt 0.844215 0.625000
vt 0.844215 0.742057
vt 0.859608 0.746029
vt 0.859608 0.750000
vt 0.875000 0.750000
vt 0.875000 0.746029
vt 0.375000 0.984608
vt 0.375000 1.000000
vt 0.625000 1.000000
vt 0.625000 0.984608
vt 0.155785 0.746029
vt 0.155785 0.750000
vt 0.250000 0.750000
vt 0.250000 0.746029
vt 0.148089 0.746029
vt 0.148089 0.750000
vt 0.750000 0.746029
vt 0.750000 0.750000
vt 0.844215 0.750000
vt 0.844215 0.746029
vt 0.375000 0.007943
vt 0.625000 0.007943
vt 0.375000 0.875000
vt 0.375000 0.969215
vt 0.625000 0.969215
vt 0.625000 0.875000
vt 0.375000 0.005957
vt 0.625000 0.005957
vt 0.148089 0.742057
vt 0.155785 0.742057
vt 0.250000 0.742057
vt 0.859608 0.742057
vt 0.875000 0.742057
vt 0.851911 0.742057
vt 0.125000 0.742057
vt 0.140392 0.742057
vt 0.125000 0.746029
vt 0.125000 0.750000
vt 0.140392 0.750000
vt 0.140392 0.746029
vt 0.375000 0.976911
vt 0.625000 0.976911
vt 0.851911 0.746029
vt 0.851911 0.750000
vt 0.851911 0.744043
vt 0.859608 0.744043
vt 0.125000 0.744043
vt 0.140392 0.744043
vt 0.375000 0.000000
vt 0.375000 0.003971
vt 0.625000 0.003971
vt 0.625000 0.000000
vt 0.750000 0.744043
vt 0.844215 0.744043
vt 0.148089 0.744043
vt 0.155785 0.744043
vt 0.250000 0.744043
vt 0.875000 0.744043
vt 0.844215 0.742057
vt 0.750000 0.742057
vt 0.859608 0.746029
vt 0.875000 0.746029
vt 0.875000 0.750000
vt 0.859608 0.750000
vt 0.375000 0.984608
vt 0.625000 0.984608
vt 0.625000 1.000000
vt 0.375000 1.000000
vt 0.155785 0.746029
vt 0.155785 0.750000
vt 0.148089 0.746029
vt 0.148089 0.750000
vt 0.844215 0.746029
vt 0.844215 0.750000
vt 0.375000 0.007943
vt 0.625000 0.007943
vt 0.625000 0.969215
vt 0.375000 0.969215
vt 0.375000 0.005957
vt 0.625000 0.005957
vt 0.155785 0.742057
vt 0.148089 0.742057
vt 0.875000 0.742057
vt 0.859608 0.742057
vt 0.851911 0.742057
vt 0.140392 0.742057
vt 0.125000 0.742057
vt 0.125000 0.746029
vt 0.140392 0.746029
vt 0.140392 0.750000
vt 0.125000 0.750000
vt 0.375000 0.976911
vt 0.625000 0.976911
vt 0.851911 0.746029
vt 0.851911 0.750000
vt 0.851911 0.744043
vt 0.859608 0.744043
vt 0.125000 0.744043
vt 0.140392 0.744043
vt 0.375000 0.000000
vt 0.625000 0.000000
vt 0.625000 0.003971
vt 0.375000 0.003971
vt 0.844215 0.744043
vt 0.148089 0.744043
vt 0.155785 0.744043
vt 0.875000 0.744043
vt 0.844215 0.742057
vt 0.750000 0.625000
vn 0.0000 0.0000 1.0000
vn 0.8285 -0.5600 0.0000
vn 0.0000 0.0000 -1.0000
vn 0.0000 -1.0000 0.0000
vn 1.0000 0.0000 0.0000
vn 0.1785 -0.9839 0.0000
vn 0.9851 -0.1722 0.0000
vn 0.4860 -0.8740 0.0000
vn 0.9917 -0.1286 0.0000
vn -0.0003 0.9962 0.0872
vn -0.7121 0.6890 0.1348
vn -0.9963 0.0000 0.0856
vn 0.2688 -0.9632 0.0000
vn 0.8285 0.5600 0.0000
vn 0.0000 1.0000 0.0000
vn 0.1785 0.9839 0.0000
vn 0.9851 0.1722 0.0000
vn 0.4860 0.8740 0.0000
vn 0.9917 0.1286 0.0000
vn -0.0003 -0.9962 0.0872
vn -0.7121 -0.6890 0.1348
vn 0.2688 0.9632 0.0000
vn -0.8285 -0.5600 0.0000
vn -1.0000 0.0000 0.0000
vn -0.1785 -0.9839 0.0000
vn -0.9851 -0.1722 0.0000
vn -0.4860 -0.8740 0.0000
vn -0.9917 -0.1286 0.0000
vn 0.0003 0.9962 0.0872
vn 0.7121 0.6890 0.1348
vn 0.9963 0.0000 0.0856
vn -0.2688 -0.9632 0.0000
vn -0.8285 0.5600 0.0000
vn -0.1785 0.9839 0.0000
vn -0.9851 0.1722 0.0000
vn -0.4860 0.8740 0.0000
vn -0.9917 0.1286 0.0000
vn 0.0003 -0.9962 0.0872
vn 0.7121 -0.6890 0.1348
vn -0.2688 0.9632 0.0000
usemtl Material
s off
f 32/1/1 30/2/1 7/3/1 19/4/1
f 22/5/2 19/6/2 7/7/2 8/8/2
f 28/9/3 26/10/3 5/11/3 10/12/3
f 40/13/3 28/9/3 10/12/3 34/14/3
f 29/15/1 27/16/1 12/17/1 6/18/1
f 13/19/4 18/20/4 11/21/4 9/22/4
f 5/23/5 6/24/5 12/25/5 10/26/5
f 42/27/6 41/28/6 18/20/6 13/19/6
f 37/29/3 3/30/3 16/31/3 38/32/3
f 3/30/3 2/33/3 14/34/3 16/31/3
f 20/35/1 11/36/1 18/37/1 24/38/1
f 33/39/1 20/35/1 24/38/1 35/40/1
f 9/41/3 21/42/3 23/43/3 13/44/3
f 25/45/3 31/46/3 22/47/3 8/48/3
f 34/49/7 36/50/7 19/6/7 22/5/7
f 39/51/1 32/1/1 19/4/1 36/52/1
f 50/53/1 48/54/1 32/1/1 39/51/1
f 42/55/3 47/56/3 31/46/3 25/45/3
f 8/57/8 7/58/8 30/59/8 25/60/8
f 46/61/1 44/62/1 27/16/1 29/15/1
f 49/63/3 45/64/3 28/9/3 40/13/3
f 45/64/3 43/65/3 26/10/3 28/9/3
f 48/54/1 41/66/1 30/2/1 32/1/1
f 47/56/3 49/63/3 40/13/3 31/46/3
f 44/62/1 50/53/1 39/51/1 27/16/1
f 27/16/1 39/51/1 36/52/1 12/17/1
f 10/26/9 12/25/9 36/50/9 34/49/9
f 4/67/10 33/39/10 35/40/10 15/68/10
f 21/42/3 37/29/3 38/32/3 23/43/3
f 31/46/3 40/13/3 34/14/3 22/47/3
f 15/68/11 35/40/11 50/53/11 44/62/11
f 23/43/3 38/32/3 49/63/3 47/56/3
f 24/38/1 18/37/1 41/66/1 48/54/1
f 16/31/3 14/34/3 43/65/3 45/64/3
f 38/32/3 16/31/3 45/64/3 49/63/3
f 17/69/12 15/68/12 44/62/12 46/61/12
f 13/44/3 23/43/3 47/56/3 42/55/3
f 35/40/1 24/38/1 48/54/1 50/53/1
f 25/60/13 30/59/13 41/28/13 42/27/13
f 74/70/1 63/71/1 53/72/1 72/73/1
f 66/74/14 54/75/14 53/76/14 63/77/14
f 71/78/3 56/79/3 5/11/3 26/10/3
f 82/80/3 76/81/3 56/79/3 71/78/3
f 29/15/1 6/18/1 58/82/1 70/83/1
f 59/84/15 55/85/15 57/86/15 62/87/15
f 5/23/5 56/88/5 58/89/5 6/24/5
f 84/90/16 59/84/16 62/87/16 83/91/16
f 79/92/3 80/93/3 61/94/3 51/95/3
f 51/95/3 61/94/3 14/34/3 2/33/3
f 64/96/1 68/97/1 62/98/1 57/99/1
f 75/100/1 77/101/1 68/97/1 64/96/1
f 55/102/3 59/103/3 67/104/3 65/105/3
f 69/106/3 54/107/3 66/108/3 73/109/3
f 76/110/17 66/74/17 63/77/17 78/111/17
f 81/112/1 78/113/1 63/71/1 74/70/1
f 90/114/1 81/112/1 74/70/1 88/115/1
f 84/116/3 69/106/3 73/109/3 87/117/3
f 54/118/18 69/119/18 72/120/18 53/121/18
f 46/61/1 29/15/1 70/83/1 85/122/1
f 89/123/3 82/80/3 71/78/3 86/124/3
f 86/124/3 71/78/3 26/10/3 43/65/3
f 88/115/1 74/70/1 72/73/1 83/125/1
f 87/117/3 73/109/3 82/80/3 89/123/3
f 85/122/1 70/83/1 81/112/1 90/114/1
f 70/83/1 58/82/1 78/113/1 81/112/1
f 56/88/19 76/110/19 78/111/19 58/89/19
f 52/126/20 60/127/20 77/101/20 75/100/20
f 65/105/3 67/104/3 80/93/3 79/92/3
f 73/109/3 66/108/3 76/81/3 82/80/3
f 60/127/21 85/122/21 90/114/21 77/101/21
f 67/104/3 87/117/3 89/123/3 80/93/3
f 68/97/1 88/115/1 83/125/1 62/98/1
f 61/94/3 86/124/3 43/65/3 14/34/3
f 80/93/3 89/123/3 86/124/3 61/94/3
f 17/69/12 46/61/12 85/122/12 60/127/12
f 59/103/3 84/116/3 87/117/3 67/104/3
f 77/101/1 90/114/1 88/115/1 68/97/1
f 69/119/22 84/90/22 83/91/22 72/120/22
f 114/128/1 103/129/1 93/130/1 112/131/1
f 104/132/23 94/133/23 93/134/23 103/135/23
f 110/136/3 95/137/3 91/138/3 108/139/3
f 120/140/3 115/141/3 95/137/3 110/136/3
f 111/142/1 92/143/1 96/144/1 109/145/1
f 97/146/4 9/22/4 11/21/4 102/147/4
f 91/148/24 95/149/24 96/150/24 92/151/24
f 122/152/25 97/146/25 102/147/25 121/153/25
f 37/29/3 118/154/3 100/155/3 3/30/3
f 3/30/3 100/155/3 98/156/3 2/33/3
f 20/35/1 106/157/1 102/158/1 11/36/1
f 33/39/1 116/159/1 106/157/1 20/35/1
f 9/41/3 97/160/3 105/161/3 21/42/3
f 107/162/3 94/163/3 104/164/3 113/165/3
f 115/166/26 104/132/26 103/135/26 117/167/26
f 119/168/1 117/169/1 103/129/1 114/128/1
f 130/170/1 119/168/1 114/128/1 128/171/1
f 122/172/3 107/162/3 113/165/3 127/173/3
f 94/174/27 107/175/27 112/176/27 93/177/27
f 126/178/1 111/142/1 109/145/1 124/179/1
f 129/180/3 120/140/3 110/136/3 125/181/3
f 125/181/3 110/136/3 108/139/3 123/182/3
f 128/171/1 114/128/1 112/131/1 121/183/1
f 127/173/3 113/165/3 120/140/3 129/180/3
f 124/179/1 109/145/1 119/168/1 130/170/1
f 109/145/1 96/144/1 117/169/1 119/168/1
f 95/149/28 115/166/28 117/167/28 96/150/28
f 4/67/29 99/184/29 116/159/29 33/39/29
f 21/42/3 105/161/3 118/154/3 37/29/3
f 113/165/3 104/164/3 115/141/3 120/140/3
f 99/184/30 124/179/30 130/170/30 116/159/30
f 105/161/3 127/173/3 129/180/3 118/154/3
f 106/157/1 128/171/1 121/183/1 102/158/1
f 100/155/3 125/181/3 123/182/3 98/156/3
f 118/154/3 129/180/3 125/181/3 100/155/3
f 101/185/31 126/178/31 124/179/31 99/184/31
f 97/160/3 122/172/3 127/173/3 105/161/3
f 116/159/1 130/170/1 128/171/1 106/157/1
f 107/175/32 122/152/32 121/153/32 112/176/32
f 148/186/1 146/187/1 131/188/1 139/189/1
f 140/190/33 139/191/33 131/192/33 132/193/33
f 145/194/3 108/139/3 91/138/3 133/195/3
f 154/196/3 145/194/3 133/195/3 149/197/3
f 111/142/1 144/198/1 134/199/1 92/143/1
f 135/200/15 138/201/15 57/86/15 55/85/15
f 91/148/24 92/151/24 134/202/24 133/203/24
f 156/204/34 155/205/34 138/201/34 135/200/34
f 79/92/3 51/95/3 137/206/3 152/207/3
f 51/95/3 2/33/3 98/156/3 137/206/3
f 64/96/1 57/99/1 138/208/1 142/209/1
f 75/100/1 64/96/1 142/209/1 150/210/1
f 55/102/3 65/105/3 141/211/3 135/212/3
f 143/213/3 147/214/3 140/215/3 132/216/3
f 149/217/35 151/218/35 139/191/35 140/190/35
f 153/219/1 148/186/1 139/189/1 151/220/1
f 162/221/1 160/222/1 148/186/1 153/219/1
f 156/223/3 159/224/3 147/214/3 143/213/3
f 132/225/36 131/226/36 146/227/36 143/228/36
f 126/178/1 157/229/1 144/198/1 111/142/1
f 161/230/3 158/231/3 145/194/3 154/196/3
f 158/231/3 123/182/3 108/139/3 145/194/3
f 160/222/1 155/232/1 146/187/1 148/186/1
f 159/224/3 161/230/3 154/196/3 147/214/3
f 157/229/1 162/221/1 153/219/1 144/198/1
f 144/198/1 153/219/1 151/220/1 134/199/1
f 133/203/37 134/202/37 151/218/37 149/217/37
f 52/126/38 75/100/38 150/210/38 136/233/38
f 65/105/3 79/92/3 152/207/3 141/211/3
f 147/214/3 154/196/3 149/197/3 140/215/3
f 136/233/39 150/210/39 162/221/39 157/229/39
f 141/211/3 152/207/3 161/230/3 159/224/3
f 142/209/1 138/208/1 155/232/1 160/222/1
f 137/206/3 98/156/3 123/182/3 158/231/3
f 152/207/3 137/206/3 158/231/3 161/230/3
f 101/185/31 136/233/31 157/229/31 126/178/31
f 135/212/3 141/211/3 159/224/3 156/223/3
f 150/210/1 142/209/1 160/222/1 162/221/1
f 143/228/40 146/227/40 155/205/40 156/204/40
usemtl Material.002
f 1/234/1 4/67/1 15/68/1 17/69/1
f 1/234/1 17/69/1 60/127/1 52/126/1
f 1/234/1 101/185/1 99/184/1 4/67/1
f 1/234/1 52/126/1 136/233/1 101/185/1
